# xmcd CD database file
#
# Track frame offsets:
#	150
#	23061
#	37551
#	52751
#	70745
#	89532
#	102031
#	124425
#	136648
#	154748
#	172466
#	191807
#	204853
#	218395
#	236388
#	254489
#	270393
#	288894
#	305066
#	308724
#
# Disc length: 4316 seconds
#
# Revision: 0
# Processed by: cddbd v1.5.2PL0 Copyright (c) Steve Scherf et al.
# Submitted via: CDex 1.51
#
DISCID=0b10da14
DTITLE=Norah Jones - Live in Paris 2007
DYEAR=2007
DGENRE=Jazz
TTITLE0=cold cold heart
TTITLE1=sunrise
TTITLE2=thinking about you
TTITLE3=sinkin' soon
TTITLE4=not too late
TTITLE5=not my friend
TTITLE6=humble me up
TTITLE7=wake me up
TTITLE8=broken
TTITLE9=until the end
TTITLE10=creepin' in
TTITLE11=the long way home
TTITLE12=little room
TTITLE13=my dear country
TTITLE14=rosie's lullaby
TTITLE15=by my somebody
TTITLE16=don't know why
TTITLE17=come away with me
TTITLE18=applause
TTITLE19=lonestart
EXTD=YEAR: 2007
EXTT0=
EXTT1=
EXTT2=
EXTT3=
EXTT4=
EXTT5=
EXTT6=
EXTT7=
EXTT8=
EXTT9=
EXTT10=
EXTT11=
EXTT12=
EXTT13=
EXTT14=
EXTT15=
EXTT16=
EXTT17=
EXTT18=
EXTT19=
PLAYORDER=
